<svg width="32" height="32" viewBox="0 0 32 32" fill="none" xmlns="http://www.w3.org/2000/svg">
<rect width="32" height="32" rx="6.45704" fill="white"/>
<path d="M25.5432 0C29.1093 9.626e-06 32.0002 2.89092 32.0002 6.45703V25.543C32.0002 26.7333 31.6763 27.8472 31.1145 28.8047L23.8977 21.5879L21.5881 23.8975L28.8049 31.1143C27.8475 31.676 26.7335 32 25.5432 32H6.45728C2.89119 32 0.000310292 29.109 0.000244141 25.543V6.45703C0.000244063 2.89091 2.89116 2.01162e-06 6.45728 0H25.5432Z" fill="url(#paint0_linear_3342_5527)"/>
<path d="M7.66468 18.6745C7.60652 14.6951 11.663 13.5536 13.1696 13.1695C13.5537 11.6629 14.6952 7.60643 18.6746 7.66459C22.6538 7.72275 23.7721 11.1256 23.6327 14.4134L22.5352 22.5351L14.4135 23.6326C11.1257 23.772 7.72284 22.6537 7.66468 18.6745Z" stroke="white" stroke-width="3.22852"/>
<path d="M12.4124 18.7717C13.3801 19.1506 14.3269 19.1127 16.6688 18.6684" stroke="white" stroke-width="1.93711" stroke-linecap="round"/>
<defs>
<linearGradient id="paint0_linear_3342_5527" x1="0.000164648" y1="-3.94385e-05" x2="32.0001" y2="31.9999" gradientUnits="userSpaceOnUse">
<stop stop-color="#0A5CFE"/>
<stop offset="0.657742" stop-color="#FC00F4"/>
<stop offset="1" stop-color="#FC0093"/>
</linearGradient>
</defs>
</svg>
